<?xml version="1.0" encoding="utf-8"?>
<!-- Generator: Adobe Illustrator 19.0.1, SVG Export Plug-In . SVG Version: 6.00 Build 0)  -->
<svg version="1.1" xmlns="http://www.w3.org/2000/svg" xmlns:xlink="http://www.w3.org/1999/xlink" x="0px" y="0px"
	 viewBox="0 0 800 800" style="enable-background:new 0 0 800 800;" xml:space="preserve">
<style type="text/css">
	.st0{fill:#C2D5E5;}
	.st1{fill:#B9D0E2;}
	.st2{fill:#ADC7DC;}
	.st3{fill:#E1EAF2;}
	.st4{fill:#D3E1ED;}
	.st5{fill:#D0DFEB;}
	.st6{fill:#E6EEF5;}
	.st7{fill:#C4D7E6;}
	.st8{fill:#7EA7C9;}
	.st9{fill:#D5E2ED;}
	.st10{fill:#4F87B5;}
	.st11{fill:#CDDDEA;}
	.st12{fill:#578DB9;}
</style>
<g id="Layer_1">
	<g>
		<path class="st0" d="M800,180.8L739.9,76.5c0,2.8,47.1,82.6,60.1,104.5V180.8z"/>
		<path class="st1" d="M800,599.9c-24.1-19.5-60.1-48.7-60.1-48.2v0.7l60.1,47.8V599.9z"/>
		<path class="st1" d="M800,353.5l-60.1,48.6c0,0,29.4-23.3,60.1-47.9V353.5z"/>
		<path class="st0" d="M800,103.8c-30.5-14.5-60.1-28.4-60.1-27.3l60.1,28.1V103.8z"/>
		<polygon class="st1" points="800,292.3 739.9,288.9 800,293 		"/>
		<polygon class="st2" points="788.7,720.3 779.4,732.2 779.4,732.2 779.7,732.5 779,732.8 778.9,732.9 778.8,732.8 767.7,737.6 
			800,737.6 800,720.7 800,706 800,705.8 		"/>
		<polygon class="st2" points="800,624.5 739.9,645.4 692.9,661.5 739.9,673.2 800,688.3 		"/>
		<polygon class="st2" points="778.9,732.9 779,732.8 778.8,732.8 		"/>
		<polygon class="st3" points="800,688.3 739.9,673.2 692.9,661.5 692.8,661.5 708.6,674.6 739.9,700.1 779.4,732.2 779.4,732.2 
			788.7,720.3 800,705.8 		"/>
		<path class="st1" d="M800,552.7l-60.1-0.9c0-0.5,36,28.7,60.1,48.2V552.7z"/>
		<polygon class="st4" points="800,532.7 739.9,497.3 739.9,551.8 800,552.7 		"/>
		<polygon class="st3" points="800,491.9 739.9,497.3 800,532.7 		"/>
		<polygon class="st5" points="800,438.6 739.9,402.2 739.9,497.3 800,491.9 		"/>
		<path class="st3" d="M800,354.3c-30.7,24.6-60.1,47.9-60.1,47.9l60.1,36.4V354.3z"/>
		<polygon class="st1" points="800,293 739.9,288.9 739.9,402.2 800,353.5 		"/>
		<polygon class="st0" points="800,191.8 739.9,288.9 800,292.3 		"/>
		<polygon class="st0" points="800,104.7 739.9,76.5 800,180.8 		"/>
		<path class="st2" d="M799.6,0h-43.3h-16.5v76.5c0-1.1,29.6,12.8,60.1,27.3V54.2V0.8L799.6,0z"/>
		<polyline class="st6" points="657,785.6 739.9,749.7 740.3,749.5 767.3,737.8 767.7,737.6 778.8,732.8 779,732.8 779.7,732.5 
			779.4,732.2 739.9,700.1 708.6,674.6 		"/>
		<polyline class="st5" points="708.6,674.6 692.6,661.6 692.3,661.7 692.4,661.4 692,661.1 692,661.1 621.6,603.7 648.4,737.6 
			647.7,737.8 647.7,737.8 657,785.6 		"/>
		<polygon class="st6" points="767.3,737.8 767.8,737.6 767.7,737.6 		"/>
		<polygon class="st5" points="780.3,737.6 780.3,737.6 767.8,737.6 767.3,737.8 740.3,749.5 739.9,749.7 739.9,800 764.9,800 
			800,800 800,799.9 800,798.3 800,737.6 		"/>
		<path class="st5" d="M0,317.3L0,317.3l22.9,4.3C22.9,321.6,13.6,319.8,0,317.3z"/>
		<path class="st2" d="M198.7,0c13.7,46.8,26.6,90.7,26.6,90.7L198.9,0H198.7z"/>
		<path class="st5" d="M263.7,597.7l-72.6-70.3C191.8,529.1,263.7,597.7,263.7,597.7z"/>
		<polygon class="st4" points="433.2,569.9 351.5,575.4 513.7,565 		"/>
		<polygon class="st5" points="692.6,661.6 708.6,674.6 692.8,661.5 		"/>
		<polygon class="st3" points="692.9,572.6 621.6,603.7 739.9,552.5 		"/>
		<polygon class="st4" points="59.5,647.6 72.5,720.9 49.7,587.3 		"/>
		<polygon class="st5" points="504.5,501.3 433.2,569.9 564.9,444.1 		"/>
		<path class="st4" d="M478.3,620.6l-126.8-45.2c0,0,0,0,0,0C353.8,577.4,478.3,620.6,478.3,620.6z"/>
		<path class="st0" d="M621.6,603.7c0,0,40.2-92,40.2-92.6L621.6,603.7z"/>
		<path class="st4" d="M572.5,684c-6.2-4.2-94.7-64.5-94.2-63.5L572.5,684z"/>
		<path class="st2" d="M351.5,575.4l20.5,22.1C360.3,584.8,352.2,576.1,351.5,575.4C351.5,575.4,351.5,575.3,351.5,575.4z"/>
		<path class="st2" d="M385.1,500.7l46.7-113h0C430.9,389.5,386.6,497,385.1,500.7z"/>
		<polygon class="st1" points="122.9,23.2 318,152.8 225.3,90.7 		"/>
		<path class="st5" d="M162.5,410.3l-57.7-36l0.1,0.1c30.1,19.3,57,36.5,57,36.5L162.5,410.3z"/>
		<polygon class="st7" points="22.9,321.6 4.2,449.8 15.6,373.9 		"/>
		<path class="st4" d="M22.9,321.6c0.7,0.6,26.1,17,55,35.5L22.9,321.6z"/>
		<path class="st0" d="M680.8,93.6L627.7,107l-131.7,37C496,144.1,608.6,112.9,680.8,93.6z"/>
		<path class="st2" d="M572.7,683.6c-1.5-7.2-18.2-73.4-18.2-73.4L572.7,683.6L572.7,683.6z"/>
		<polygon class="st3" points="0,726.9 59.5,647.6 17.2,702.8 0,726.6 		"/>
		<path class="st3" d="M454.2,265.4c7.3,15.3,110.7,178.8,110.7,178.8L453.7,264.2l0.2,0.4C453.9,264.8,454,265.1,454.2,265.4z"/>
		<polygon class="st0" points="159.2,737.6 167,760.5 167,760.5 159.3,737.6 129.4,648.3 144.8,695.5 		"/>
		<path class="st2" d="M661.8,511.1l-96.9-67C567.5,446.5,661.8,511.1,661.8,511.1z"/>
		<path class="st6" d="M106.1,113.1l-7.6,40.8l0.6,0.6C100.3,147.5,102.9,131.6,106.1,113.1z"/>
		<polygon class="st7" points="263.5,309.2 431.8,387.7 337.5,343.4 		"/>
		<polygon class="st3" points="431.8,387.7 564.9,444.1 512.3,421.8 		"/>
		<polygon class="st6" points="524,262.8 496,144.1 564.9,444.1 		"/>
		<polygon class="st2" points="374.1,643.4 405.8,737.6 351.5,575.4 		"/>
		<path class="st3" d="M283,690.2l-5.6-26.8C280.3,677.2,282.6,688.3,283,690.2L283,690.2z"/>
		<polygon class="st4" points="692,661.1 692.4,661.4 739.9,552.5 		"/>
		<polygon class="st3" points="188.5,238.6 263.5,309.2 188.7,238.8 		"/>
		<polygon class="st0" points="125.3,465.4 161.9,410.9 93.6,510.5 		"/>
		<path class="st3" d="M647.7,737.8l0.8-0.1l-26.8-134c0,0-48.8,82.2-48.8,80.6"/>
		<polyline class="st6" points="572.8,684.3 539.8,737.6 527.7,757.2 647.7,737.8 		"/>
		<path class="st6" d="M572.8,684.3c0-0.1-0.1-0.3-0.1-0.6l0,0.1L572.8,684.3z"/>
		<polygon class="st4" points="572.5,684 478.3,620.6 468,701.7 572.8,684.3 		"/>
		<polygon class="st0" points="572.8,684.3 468,701.7 506.6,737.6 527.7,757.2 539.8,737.6 		"/>
		<path class="st6" d="M351.5,575.4c0.7,0.7,8.8,9.4,20.4,22l29.5,31.9c0,0,65.8,71.3,66.5,72.4l10.4-81.1
			C478.3,620.6,353.8,577.4,351.5,575.4z"/>
		<path class="st4" d="M401.5,629.3l4.3,108.4l62.2-35.9C467.3,700.6,401.5,629.3,401.5,629.3z"/>
		<polygon class="st2" points="372,597.4 351.5,575.4 405.8,737.6 401.5,629.3 		"/>
		<polygon class="st0" points="313,737.6 297.8,761.1 405.8,737.6 374.1,643.4 		"/>
		<path class="st3" d="M277.4,663.4l5.6,26.8l0.2,0.1l9.8,47.4l4.8,23.4l15.2-23.4l61-94.2l-110.4-45.7
			C263.7,597,271.7,635.8,277.4,663.4z"/>
		<polygon class="st1" points="374.1,643.4 351.5,575.4 263.7,597.7 		"/>
		<path class="st6" d="M277.4,663.4c-5.7-27.6-13.7-66.4-13.7-65.7l-48.2,64.3l67.4,28.2C282.6,688.3,280.3,677.2,277.4,663.4z"/>
		<polygon class="st4" points="283.2,690.3 283,690.2 282.9,690.2 215.5,661.9 278.4,737.6 297.8,761.1 293,737.6 		"/>
		<path class="st5" d="M191.1,527.4l24.4,134.5l48.2-64.3C263.7,597.7,191.8,529.1,191.1,527.4z"/>
		<polygon class="st3" points="129.4,648.3 215.5,661.9 191.1,527.4 		"/>
		<polygon class="st0" points="215.5,661.9 129.4,648.3 159.3,737.6 167,760.5 167,760.6 167.4,761.6 178.9,737.6 		"/>
		<polygon class="st0" points="129.4,648.3 72.5,720.9 144.8,695.5 		"/>
		<polygon class="st4" points="49.7,587.3 72.5,720.9 129.4,648.3 		"/>
		<polygon class="st5" points="142.4,548.7 49.7,587.3 129.4,648.3 191.1,527.4 		"/>
		<polygon class="st3" points="0,736 72.5,720.9 59.5,647.6 0,726.9 		"/>
		<polygon class="st5" points="0,604.3 59.5,647.6 49.7,587.3 0,577.6 		"/>
		<polygon class="st5" points="0,604.3 0,668.2 17.2,702.8 59.5,647.6 		"/>
		<polygon class="st5" points="0,668.2 0,726.6 17.2,702.8 		"/>
		<polygon class="st4" points="739.9,552.5 692.4,661.4 692.3,661.7 692.6,661.6 692.8,661.5 692.9,661.5 739.9,645.4 800,624.5 
			800,600.3 		"/>
		<polygon class="st3" points="621.6,603.7 692,661.1 692,661.1 739.9,552.5 		"/>
		<polygon class="st7" points="263.7,597.7 269.2,487.7 191.1,527.4 		"/>
		<path class="st4" d="M93.6,510.6l-29.9-23.4c0.6,1.5-14,100.2-14,100.2l92.7-38.7l48.8-21.2L93.6,510.6z"/>
		<polygon class="st0" points="263.7,597.7 351.5,575.4 269.2,487.7 		"/>
		<path class="st0" d="M572.5,684l0.4,0.2l-0.1-0.6l-18.1-73.5l-76.2,10.3C477.7,619.5,566.3,679.8,572.5,684z"/>
		<path class="st2" d="M572.7,683.6c0.1,0.3,0.1,0.6,0.1,0.6c0,1.6,48.8-80.6,48.8-80.6l-67.1,6.5
			C554.5,610.2,571.3,676.5,572.7,683.6z"/>
		<path class="st6" d="M661.8,511.1c0,0.5-40.2,92.6-40.2,92.6l71.3-31L661.8,511.1z"/>
		<polygon class="st2" points="739.9,552.5 661.8,511.1 692.9,572.6 		"/>
		<polygon class="st3" points="739.9,552.5 739.9,551.8 739.9,497.5 661.8,511.1 739.9,552.5 		"/>
		<polygon class="st0" points="616.7,553 554.5,610.2 621.6,603.7 661.8,511.1 		"/>
		<polygon class="st3" points="478.3,620.6 554.5,610.2 513.7,565 		"/>
		<polygon class="st4" points="513.7,565 351.5,575.4 478.3,620.6 		"/>
		<polygon class="st1" points="554.5,610.2 616.7,553 513.7,565 		"/>
		<polygon class="st0" points="513.7,565 616.7,553 564.9,444.1 		"/>
		<polygon class="st5" points="433.2,569.9 513.7,565 564.9,444.1 		"/>
		<polygon class="st6" points="385,500.8 351.5,575.4 433.2,569.9 		"/>
		<polygon class="st0" points="385,500.8 433.2,569.9 504.5,501.3 		"/>
		<polygon class="st1" points="269.2,487.7 351.5,575.4 385,500.8 		"/>
		<path class="st1" d="M616.7,553l45.1-41.9c0,0-94.3-64.6-96.9-67L616.7,553z"/>
		<path class="st2" d="M661.8,511.1c0,0,9.8-141.6,9.8-143.8l-106.7,76.8L661.8,511.1z"/>
		<path class="st0" d="M661.8,511.1l78-109.6l-68.3-34.1C671.6,369.5,661.8,511.1,661.8,511.1z"/>
		<polygon class="st6" points="739.9,497.5 739.9,497.3 739.9,402.2 739.9,401.5 661.8,511.1 		"/>
		<polygon class="st7" points="0,553.1 0,577.6 49.7,587.3 		"/>
		<path class="st3" d="M63.7,487.1L0,486.3v66.9l49.7,34.2C49.7,587.3,64.3,488.6,63.7,487.1z"/>
		<polygon class="st2" points="0,486.3 63.7,487.1 4.2,450.1 0,447.5 		"/>
		<polygon class="st3" points="0,317.3 0,332.5 22.9,321.6 		"/>
		<polygon class="st7" points="0,332.5 0,447.5 4.2,450.1 4.2,449.8 22.9,321.6 		"/>
		<polygon class="st5" points="4.2,450.1 63.7,487.1 161.9,410.9 		"/>
		<polygon class="st3" points="15.6,373.9 4.2,449.8 4.2,450.1 161.9,410.9 		"/>
		<path class="st6" d="M161.9,410.9c0,0-26.9-17.2-57-36.5l0.1,0.2l-27.1-17.5c-28.9-18.5-54.3-34.9-55-35.5l-7.3,52.3L161.9,410.9z
			"/>
		<path class="st3" d="M739.9,401.5V289.6c0,0.7-68.3,77.7-68.3,77.7L739.9,401.5z"/>
		<path class="st5" d="M0,317.3c13.6,2.6,22.9,4.3,22.9,4.3l-1.6-124.9L0,213.5V317.3z"/>
		<polygon class="st0" points="161.9,410.9 125.3,465.4 93.6,510.5 161.9,410.9 63.7,487.1 93.6,510.6 191.1,527.4 		"/>
		<path class="st4" d="M431.8,387.7l-46.7,113c0,0.1,0,0.1,0,0.1l119.5,0.5l60.4-57.2L431.8,387.7z"/>
		<polygon class="st3" points="671.6,367.3 639.9,247.5 564.9,444.1 		"/>
		<polygon class="st6" points="232.6,340.5 163.5,410.9 162.5,410.3 161.9,410.9 191.1,527.4 263.5,309.2 		"/>
		<path class="st8" d="M453.9,264.6l0.3,0.7c0,0,0,0,0,0C454,265.1,453.9,264.8,453.9,264.6z"/>
		<polygon class="st4" points="77.9,357.1 105,374.6 104.9,374.4 104.8,374.3 104.2,373.9 70.4,304.2 21.2,196.7 22.9,321.6 		"/>
		<polygon class="st5" points="163.5,410.9 232.6,340.5 104.2,373.9 104.8,374.3 162.5,410.3 		"/>
		<polygon class="st4" points="191.1,527.4 269.2,487.7 263.5,309.2 		"/>
		<path class="st2" d="M431.8,387.7l-162.6,100L385,500.8c0,0,0,0,0-0.1C386.6,497,430.9,389.5,431.8,387.7z"/>
		<path class="st6" d="M453.9,264.6l-0.2-0.4c0,0.1,0.1,0.5,0.4,1.1L453.9,264.6z"/>
		<path class="st3" d="M454.2,265.4C454.2,265.4,454.1,265.4,454.2,265.4c-0.3-0.6-0.5-1-0.4-1.1l-21.9,123.4c0,0,0,0,0,0l80.5,34.1
			l52.6,22.3C564.9,444.1,461.5,280.7,454.2,265.4z"/>
		<path class="st6" d="M671.6,367.3c0,0,68.3-77,68.3-77.7l-100-42.1L671.6,367.3z"/>
		<polygon class="st1" points="0,195.6 0,213.5 21.2,196.7 		"/>
		<polyline class="st3" points="21.2,196.7 70.4,304.2 98.5,153.9 		"/>
		<path class="st6" d="M98.5,153.9l7.6-40.8c6.2-36.2,14.2-82.1,16.3-89.1L21.2,196.7"/>
		<polygon class="st7" points="431.8,387.7 431.8,387.7 263.5,309.2 269.2,487.7 431.8,387.7 		"/>
		<polygon class="st6" points="564.9,444.1 496,144.1 453.7,264.2 		"/>
		<path class="st5" d="M739.9,289.6v-0.7V79.4c-3.3,11.6-100,168.1-100,168.1L739.9,289.6z"/>
		<polygon class="st0" points="70.4,304.2 104.2,373.9 232.6,340.5 		"/>
		<polygon class="st3" points="263.5,309.2 70.4,304.2 232.6,340.5 		"/>
		<polygon class="st4" points="564.9,444.1 639.9,247.5 524,262.8 		"/>
		<polygon class="st4" points="0,186.8 0,195.6 21.2,196.7 		"/>
		<path class="st6" d="M431.8,387.7L431.8,387.7C431.8,387.6,431.8,387.6,431.8,387.7l22-123.4l-116.3,79.1L431.8,387.7z"/>
		<polygon class="st7" points="0,76 0,186.8 21.2,196.7 		"/>
		<polyline class="st5" points="70.4,304.2 263.5,309.2 188.5,238.6 		"/>
		<path class="st4" d="M188.5,238.6l-90-80.4c0,0,0.2-1.4,0.6-3.8l-0.6-0.6l-28,150.3"/>
		<polygon class="st5" points="639.9,247.5 496,144.1 524,262.8 		"/>
		<path class="st0" d="M496,144.1l143.9,103.5c0,0,96.7-156.5,100-168.1v-0.7l-59.1,14.9C608.6,112.9,496,144.1,496,144.1z"/>
		<path class="st9" d="M0,0.6V76l21.2,120.7L122.4,24c0.1-0.5,0.2-0.7,0.3-0.8L0,0.6z"/>
		<polygon class="st4" points="453.7,264.2 318,152.8 263.5,309.2 		"/>
		<polygon class="st3" points="337.5,343.4 453.7,264.2 263.5,309.2 		"/>
		<polygon class="st5" points="453.7,264.2 496,144.1 318,152.8 		"/>
		<path class="st0" d="M103.8,0H0v0.6l122.7,22.5c0,0,0.1-0.1,0.1-0.1L103.8,0z"/>
		<path class="st3" d="M739.9,0h-39.7l39.7,78.7v210.2l60.1-97.1V181c-13-21.9-60.1-101.6-60.1-104.5V0z"/>
		<polygon class="st3" points="263.5,309.2 318,152.8 188.7,238.8 		"/>
		<polygon class="st6" points="516.6,0 496,144.1 627.7,107 526.9,0 		"/>
		<polygon class="st3" points="526.9,0 627.7,107 680.8,93.6 739.9,78.7 541.9,0 		"/>
		<path class="st3" d="M98.5,158.2l90,80.4l0.2,0.2L122.9,23.2l-0.1-0.1c0,0,0,0-0.1,0.1c-0.1,0.1-0.2,0.4-0.3,0.8
			c-2.1,7-10.1,52.9-16.3,89.1c-3.1,18.5-5.8,34.4-7,41.4C98.7,156.9,98.5,158.2,98.5,158.2z"/>
		<path class="st2" d="M103.8,0l19,23.1l0.1,0.1c0,0,3-9.4,7.5-23.2H103.8z"/>
		<polyline class="st6" points="188.7,238.8 318,152.8 225,91 		"/>
		<polyline class="st7" points="225,91 122.9,23.2 188.7,238.8 		"/>
		<polygon class="st4" points="541.9,0 739.9,78.7 700.2,0 		"/>
		<polygon class="st1" points="398.7,0 225.3,90.7 318,152.8 407,0 		"/>
		<polygon class="st2" points="198.9,0 225.3,90.7 398.7,0 		"/>
		<polygon class="st7" points="407,0 318,152.8 496,144.1 414.2,0 		"/>
		<polygon class="st4" points="414.2,0 496,144.1 516.6,0 		"/>
		<path class="st9" d="M130.3,0c-4.5,13.8-7.5,23.2-7.5,23.2l102.4,67.5c0,0-12.9-43.9-26.6-90.7H130.3z"/>
		<polygon class="st2" points="255,761.2 299.7,761.6 405.8,737.6 297.8,761.1 		"/>
		<polygon class="st0" points="647.7,737.8 527.7,757.2 405.8,737.6 527.7,759.4 647.7,737.8 		"/>
		<path class="st10" d="M178.2,800l-11.2-38.4l-0.1,0c1,3.9,5.2,18.6,11,38.4H178.2z"/>
		<polygon class="st0" points="0,745.4 0,800 45,800 		"/>
		<polygon class="st3" points="739.9,800 739.9,749.7 657,785.6 664.2,800 		"/>
		<path class="st0" d="M0,738.7v6.7L45,800h108.5c6.3-19.1,11.4-34.6,12.8-38.5L0,738.7z"/>
		<polygon class="st2" points="408.2,800 405.8,737.6 299.7,761.6 340.8,800 		"/>
		<polygon class="st6" points="664.2,800 657,785.6 630.7,800 		"/>
		<polygon class="st0" points="527.7,759.4 657,785.6 647.7,737.8 		"/>
		<polygon class="st11" points="167,760.6 167,760.6 167,760.5 167,760.5 		"/>
		<polygon class="st3" points="340.8,800 299.7,761.6 255,761.2 169.3,761.6 258.8,800 		"/>
		<polygon class="st0" points="482.8,800 527.7,759.4 405.8,737.6 408.2,800 		"/>
		<polygon class="st0" points="258.8,800 169.3,761.6 167.4,761.6 167.1,761.6 178.2,800 		"/>
		<polygon class="st12" points="167,760.6 167.4,761.6 167,760.6 		"/>
		<polygon class="st2" points="630.7,800 657,785.6 527.7,759.4 523.8,800 		"/>
		<polygon class="st6" points="523.8,800 527.7,759.4 482.8,800 		"/>
		<polygon class="st2" points="506.6,737.6 468,701.7 405.8,737.6 527.7,757.2 		"/>
		<polygon class="st6" points="278.4,737.6 215.5,661.9 178.9,737.6 167.4,761.6 169.3,761.6 255,761.2 297.8,761.1 		"/>
		<polygon class="st3" points="167,760.5 159.2,737.6 144.8,695.5 72.5,720.9 111.4,737.6 167.4,761.6 167,760.6 		"/>
		<path class="st5" d="M178,800c-5.7-19.8-10-34.5-11-38.4l0.1,0l0.3,0l-55.9-24l-39-16.7L0,736v2.8l166.3,22.7
			c-1.5,3.9-6.6,19.4-12.8,38.5H178z"/>
	</g>
</g>
<g id="Layer_2">
</g>
</svg>
